{
  "accessors": [
    {
      "bufferView": 1,
      "componentType": 5126,
      "count": 3000,
      "max": [
        570.11602783203125,
        109.27387237548828,
        598.80303955078125
      ],
      "min": [
        -399.82110595703125,
        -112.34104156494141,
        5.7624754905700684
      ],
      "type": "VEC3"
    },
    {
      "bufferView": 1,
      "byteOffset": 36000,
      "componentType": 5126,
      "count": 3000,
      "max": [
        0.9969947338104248,
        0.99963325262069702,
        0.99694180488586426
      ],
      "min": [
        -0.99928689002990723,
        -0.99944132566452026,
        -0.99439239501953125
      ],
      "type": "VEC3"
    },
    {
      "bufferView": 2,
      "componentType": 5126,
      "count": 3000,
      "max": [
        0.99931532144546509,
        0.99893033504486084,
        0.9997517466545105,
        1
      ],
      "min": [
        -0.99709218740463257,
        -0.99494969844818115,
        -0.99992161989212036,
        -1
      ],
      "type": "VEC4"
    },
    {
      "bufferView": 2,
      "byteOffset": 48000,
      "componentType": 5126,
      "count": 3000,
      "max": [
        1,
        1,
        1,
        1
      ],
      "min": [
        1,
        1,
        1,
        1
      ],
      "type": "VEC4"
    },
    {
      "bufferView": 0,
      "componentType": 5125,
      "count": 3000,
      "max": [
        2999
      ],
      "min": [
        0
      ],
      "type": "SCALAR"
    },
    {
      "bufferView": 1,
      "byteOffset": 72000,
      "componentType": 5126,
      "count": 1072,
      "max": [
        553.928466796875,
        49.625503540039062,
        466.87594604492188
      ],
      "min": [
        439.2291259765625,
        -57.252388000488281,
        388.82431030273438
      ],
      "type": "VEC3"
    },
    {
      "bufferView": 1,
      "byteOffset": 84864,
      "componentType": 5126,
      "count": 1072,
      "max": [
        0.99997627735137939,
        0.99245351552963257,
        0.99335062503814697
      ],
      "min": [
        -0.97117644548416138,
        -0.99963325262069702,
        -0.99475228786468506
      ],
      "type": "VEC3"
    },
    {
      "bufferView": 2,
      "byteOffset": 96000,
      "componentType": 5126,
      "count": 1072,
      "max": [
        0.9982459545135498,
        0.97887891530990601,
        1,
        1
      ],
      "min": [
        -0.99639791250228882,
        -0.98813819885253906,
        -0.99931985139846802,
        -1
      ],
      "type": "VEC4"
    },
    {
      "bufferView": 2,
      "byteOffset": 113152,
      "componentType": 5126,
      "count": 1072,
      "max": [
        1,
        1,
        1,
        1
      ],
      "min": [
        1,
        1,
        1,
        1
      ],
      "type": "VEC4"
    },
    {
      "bufferView": 0,
      "byteOffset": 12000,
      "componentType": 5125,
      "count": 1077,
      "max": [
        1071
      ],
      "min": [
        0
      ],
      "type": "SCALAR"
    },
    {
      "bufferView": 1,
      "byteOffset": 97728,
      "componentType": 5126,
      "count": 198,
      "max": [
        493.07424926757812,
        31.092424392700195,
        497.198486328125
      ],
      "min": [
        482.510498046875,
        -36.803256988525391,
        480.91818237304688
      ],
      "type": "VEC3"
    },
    {
      "bufferView": 1,
      "byteOffset": 100104,
      "componentType": 5126,
      "count": 198,
      "max": [
        0.97143733501434326,
        0.98843842744827271,
        0.97775912284851074
      ],
      "min": [
        -0.99913376569747925,
        -0.9725995659828186,
        -0.94675064086914062
      ],
      "type": "VEC3"
    },
    {
      "bufferView": 2,
      "byteOffset": 130304,
      "componentType": 5126,
      "count": 198,
      "max": [
        0.93905407190322876,
        0.99482870101928711,
        0.99115127325057983,
        1
      ],
      "min": [
        -0.99444484710693359,
        -0.86787372827529907,
        -0.96728056669235229,
        -1
      ],
      "type": "VEC4"
    },
    {
      "bufferView": 2,
      "byteOffset": 133472,
      "componentType": 5126,
      "count": 198,
      "max": [
        1,
        1,
        1,
        1
      ],
      "min": [
        1,
        1,
        1,
        1
      ],
      "type": "VEC4"
    },
    {
      "bufferView": 0,
      "byteOffset": 16308,
      "componentType": 5125,
      "count": 198,
      "max": [
        197
      ],
      "min": [
        0
      ],
      "type": "SCALAR"
    },
    {
      "bufferView": 1,
      "byteOffset": 102480,
      "componentType": 5126,
      "count": 1073,
      "max": [
        476.55429077148438,
        130.97407531738281,
        570.300048828125
      ],
      "min": [
        -448.02493286132812,
        -135.78666687011719,
        40.755794525146484
      ],
      "type": "VEC3"
    },
    {
      "bufferView": 1,
      "byteOffset": 115356,
      "componentType": 5126,
      "count": 1073,
      "max": [
        0.97927868366241455,
        0.9938233494758606,
        0.99828755855560303
      ],
      "min": [
        -0.94621497392654419,
        -0.99450194835662842,
        -0.95871871709823608
      ],
      "type": "VEC3"
    },
    {
      "bufferView": 2,
      "byteOffset": 136640,
      "componentType": 5126,
      "count": 1073,
      "max": [
        0.99990063905715942,
        0.99990969896316528,
        0.99227660894393921,
        1
      ],
      "min": [
        -0.99869835376739502,
        -0.99490123987197876,
        -0.99526882171630859,
        -1
      ],
      "type": "VEC4"
    },
    {
      "bufferView": 2,
      "byteOffset": 153808,
      "componentType": 5126,
      "count": 1073,
      "max": [
        1,
        1,
        1,
        1
      ],
      "min": [
        1,
        1,
        1,
        1
      ],
      "type": "VEC4"
    },
    {
      "bufferView": 0,
      "byteOffset": 17100,
      "componentType": 5125,
      "count": 1077,
      "max": [
        1072
      ],
      "min": [
        0
      ],
      "type": "SCALAR"
    }
  ],
  "asset": {
    "extras": {
      "author": "sinork123 (https://sketchfab.com/sinork123)",
      "license": "CC-BY-4.0 (http://creativecommons.org/licenses/by/4.0/)",
      "source": "https://sketchfab.com/models/d8c1d7dc47cb40128826157775031dcc",
      "title": "Low-poly wolf"
    },
    "generator": "Sketchfab-3.18.5",
    "version": "2.0"
  },
  "bufferViews": [
    {
      "buffer": 0,
      "byteLength": 21408,
      "byteOffset": 0,
      "name": "floatBufferViews",
      "target": 34963
    },
    {
      "buffer": 0,
      "byteLength": 128232,
      "byteOffset": 21408,
      "byteStride": 12,
      "name": "floatBufferViews",
      "target": 34962
    },
    {
      "buffer": 0,
      "byteLength": 170976,
      "byteOffset": 149640,
      "byteStride": 16,
      "name": "floatBufferViews",
      "target": 34962
    }
  ],
  "buffers": [
    {
      "byteLength": 320616,
      "uri": "wolf.bin"
    }
  ],
  "materials": [
    {
      "doubleSided": true,
      "emissiveFactor": [
        0,
        0,
        0
      ],
      "name": "material",
      "pbrMetallicRoughness": {
        "baseColorFactor": [
          0.80000000000000004,
          0.80000000000000004,
          0.80000000000000004,
          1
        ],
        "metallicFactor": 0,
        "roughnessFactor": 0.59999999999999998
      }
    }
  ],
  "meshes": [
    {
      "primitives": [
        {
          "attributes": {
            "COLOR_0": 3,
            "NORMAL": 1,
            "POSITION": 0,
            "TANGENT": 2
          },
          "indices": 4,
          "material": 0,
          "mode": 4
        }
      ]
    },
    {
      "primitives": [
        {
          "attributes": {
            "COLOR_0": 8,
            "NORMAL": 6,
            "POSITION": 5,
            "TANGENT": 7
          },
          "indices": 9,
          "material": 0,
          "mode": 4
        }
      ]
    },
    {
      "primitives": [
        {
          "attributes": {
            "COLOR_0": 13,
            "NORMAL": 11,
            "POSITION": 10,
            "TANGENT": 12
          },
          "indices": 14,
          "material": 0,
          "mode": 4
        }
      ]
    },
    {
      "primitives": [
        {
          "attributes": {
            "COLOR_0": 18,
            "NORMAL": 16,
            "POSITION": 15,
            "TANGENT": 17
          },
          "indices": 19,
          "material": 0,
          "mode": 4
        }
      ]
    }
  ],
  "nodes": [
    {
      "children": [
        1
      ],
      "name": "RootNode (gltf orientation matrix)",
      "rotation": [
        -0.70710678118654746,
        -0,
        -0,
        0.70710678118654757
      ]
    },
    {
      "children": [
        2
      ],
      "name": "RootNode (model correction matrix)"
    },
    {
      "children": [
        3,
        5,
        8,
        11
      ],
      "matrix": [
        -0.0060334205627441406,
        -0.99998176097869873,
        0,
        0,
        0,
        0,
        -1,
        0,
        0.99998176097869873,
        -0.0060334503650665283,
        0,
        0,
        -17.680526733398438,
        0.1066753938794136,
        6.3981146812438965,
        1
      ],
      "name": "grp1"
    },
    {
      "children": [
        4
      ],
      "matrix": [
        -0.0060333867741495031,
        -1.2810847864630728e-26,
        0.99998177732783788,
        0,
        -0.99998177732783788,
        6.1232337449322857e-17,
        -0.0060333867741495031,
        0,
        -6.1231226812352944e-17,
        -1,
        -3.694384061695584e-19,
        0,
        -6.1845992739617424e-09,
        6.3981146812438965,
        17.680848160866681,
        1
      ],
      "name": "3DSMeshMatrix"
    },
    {
      "mesh": 0,
      "name": ""
    },
    {
      "children": [
        6
      ],
      "matrix": [
        1.0000000000000002,
        0,
        -8.6736173798840355e-19,
        0,
        0,
        1.0000000000000002,
        0,
        0,
        0,
        0,
        1.0000000000000002,
        0,
        0,
        0,
        0,
        1
      ],
      "name": "grp2"
    },
    {
      "children": [
        7
      ],
      "matrix": [
        -0.0060333867741495031,
        -1.2810847864630728e-26,
        0.99998177732783788,
        0,
        -0.99998177732783788,
        6.1232337449322857e-17,
        -0.0060333867741495031,
        0,
        -6.1231226812352944e-17,
        -1,
        -3.694384061695584e-19,
        0,
        -6.1845992739617424e-09,
        6.3981146812438965,
        17.680848160866681,
        1
      ],
      "name": "3DSMeshMatrix"
    },
    {
      "mesh": 1,
      "name": ""
    },
    {
      "children": [
        9
      ],
      "matrix": [
        1.0000000000000002,
        0,
        -8.6736173798840355e-19,
        0,
        0,
        1.0000000000000002,
        0,
        0,
        0,
        0,
        1.0000000000000002,
        0,
        0,
        0,
        0,
        1
      ],
      "name": "grp3"
    },
    {
      "children": [
        10
      ],
      "matrix": [
        -0.0060333867741495031,
        -1.2810847864630728e-26,
        0.99998177732783788,
        0,
        -0.99998177732783788,
        6.1232337449322857e-17,
        -0.0060333867741495031,
        0,
        -6.1231226812352944e-17,
        -1,
        -3.694384061695584e-19,
        0,
        -6.1845992739617424e-09,
        6.3981146812438965,
        17.680848160866681,
        1
      ],
      "name": "3DSMeshMatrix"
    },
    {
      "mesh": 2,
      "name": ""
    },
    {
      "children": [
        12
      ],
      "matrix": [
        1.0000000000000002,
        0,
        -8.6736173798840355e-19,
        0,
        0,
        1.0000000000000002,
        0,
        0,
        0,
        0,
        1.0000000000000002,
        0,
        0,
        0,
        0,
        1
      ],
      "name": "grp1_2"
    },
    {
      "children": [
        13
      ],
      "matrix": [
        -0.0060333867741495031,
        -1.2810847864630728e-26,
        0.99998177732783788,
        0,
        -0.99998177732783788,
        6.1232337449322857e-17,
        -0.0060333867741495031,
        0,
        -6.1231226812352944e-17,
        -1,
        -3.694384061695584e-19,
        0,
        -6.1845992739617424e-09,
        6.3981146812438965,
        17.680848160866681,
        1
      ],
      "name": "3DSMeshMatrix"
    },
    {
      "mesh": 3,
      "name": ""
    }
  ],
  "scene": 0,
  "scenes": [
    {
      "name": "OSG_Scene",
      "nodes": [
        0
      ]
    }
  ]
}

